:SAMPLES-PER-SECOND 30
:FULLY-SPECIFIED
:DEGREES
200
root  -1.70987 40.9471 -0.778857 22.1732 -87.4806 -15.4614
RightUpLeg  -3.90149 -0.607453 -0.555174
RightLeg  -4.47025 -24.0268 3.26821
RightFoot  2.00748 -0.147419 1.37664
RightToes  -3.10096e-008 1.75238e-005 3.56266e-009
Spine  2.98345 -1.14105 -12.9936
Spine1  8.29936 -4.11274 11.8386
HEad  -19.5606 6.8351 7.47205
LeftShoulder1  1.60459 -3.76004 -15.2811
LeftArm  -48.1786 -44.3279 -9.83322
LeftForeArm  -31.0829 -26.9914 -7.2673
LeftHand  0.191322 0.123227 -4.28363
RightShoulder  3.34296 7.02839 25.6855
RightArm  -2.33257 -33.9303 42.7181
RightForeArm  16.2603 59.2249 17.7129
RightHand  -0.436835 6.44795 -4.61618
LeftUpLeg  -7.08649 0.689344 3.94041
LeftLeg  -2.08666 10.0229 -0.75484
LeftFoot  3.4499 0.280081 -2.3182
LeftToes  4.7633e-008 1.48299e-008 1.30754e-009
201
root  -1.90961 40.9507 -0.727002 17.7969 -87.4902 -11.8051
RightUpLeg  -2.85696 -0.666862 -0.656527
RightLeg  -4.26645 -23.9356 2.89723
RightFoot  1.60831 -0.162977 1.53222
RightToes  -3.10096e-008 1.75238e-005 3.56266e-009
Spine  2.08328 -1.34389 -12.6435
Spine1  8.72175 -4.19992 11.5637
HEad  -19.5313 6.45735 7.64761
LeftShoulder1  1.74579 -3.79124 -17.2753
LeftArm  -45.19 -41.4765 -12.3126
LeftForeArm  -30.8582 -34.1148 -9.12302
LeftHand  0.224292 -0.626286 -4.26363
RightShoulder  3.11757 6.34145 25.6131
RightArm  -2.59288 -34.3405 42.8326
RightForeArm  15.8698 59.331 17.8377
RightHand  -0.457118 6.5593 -4.77257
LeftUpLeg  -5.92295 0.672361 3.70467
LeftLeg  -2.13776 9.95045 -0.757564
LeftFoot  2.98645 0.288171 -2.45056
LeftToes  4.7633e-008 1.48299e-008 1.30754e-009
202
root  -2.13985 40.9552 -0.686457 13.6165 -87.3114 -8.02411
RightUpLeg  -2.09925 -0.782756 -0.779018
RightLeg  -4.0649 -23.9823 2.66316
RightFoot  1.19203 -0.185926 1.767
RightToes  -3.10096e-008 1.75238e-005 3.56266e-009
Spine  0.744842 -1.58742 -12.7044
Spine1  8.88423 -4.45874 12.1298
HEad  -19.0504 6.27134 7.41036
LeftShoulder1  1.80688 -3.80667 -18.1371
LeftArm  -42.1092 -37.6057 -15.4554
LeftForeArm  -29.5075 -40.6937 -11.2154
LeftHand  0.319022 -1.64639 -5.14535
RightShoulder  2.98108 5.9471 25.486
RightArm  -2.75051 -34.9315 42.5667
RightForeArm  15.7107 59.1971 17.7492
RightHand  -0.509921 7.10508 -5.08292
LeftUpLeg  -5.10802 0.547662 3.45929
LeftLeg  -2.15123 9.85647 -0.649802
LeftFoot  2.50247 0.29951 -2.64597
LeftToes  4.7633e-008 1.48299e-008 1.30754e-009
203
root  -2.37742 40.9536 -0.64608 11.0027 -87.2451 -5.75226
RightUpLeg  -1.3603 -0.766063 -0.828014
RightLeg  -3.98786 -24.0303 2.39937
RightFoot  0.898215 -0.211646 2.02929
RightToes  -3.10096e-008 1.75238e-005 3.56266e-009
Spine  -0.327301 -1.79614 -12.6782
Spine1  8.36736 -4.63031 12.6628
HEad  -17.6241 5.63151 6.84638
LeftShoulder1  1.76321 -3.42002 -18.9311
LeftArm  -37.9761 -33.3535 -18.4288
LeftForeArm  -28.1159 -47.1177 -13.7604
LeftHand  0.345013 -1.77073 -5.4541
RightShoulder  2.89218 5.73021 25.2567
RightArm  -3.05166 -35.4009 42.4348
RightForeArm  15.5201 58.7264 17.4019
RightHand  -0.485376 7.13501 -4.84384
LeftUpLeg  -4.28681 0.497747 3.27774
LeftLeg  -2.25103 9.78704 -0.607141
LeftFoot  2.12176 0.298268 -2.65251
LeftToes  4.7633e-008 1.48299e-008 1.30754e-009
204
root  -2.62781 40.9527 -0.597316 10.3478 -87.4463 -5.65844
RightUpLeg  -0.281718 -0.78627 -0.824817
RightLeg  -4.14556 -23.7965 2.27572
RightFoot  0.625597 -0.210521 1.95616
RightToes  -3.10096e-008 1.75238e-005 3.56266e-009
Spine  -1.43885 -1.79757 -12.2381
Spine1  8.03703 -4.50215 12.7477
HEad  -16.1234 4.64397 6.01703
LeftShoulder1  1.78927 -3.41927 -19.3425
LeftArm  -34.9452 -28.3717 -21.8244
LeftForeArm  -23.925 -53.2528 -16.8507
LeftHand  0.332448 -1.89618 -5.15723
RightShoulder  2.85393 5.58616 25.3358
RightArm  -3.85683 -35.9651 42.357
RightForeArm  15.8243 58.4781 17.1821
RightHand  -0.45601 7.0583 -4.59868
LeftUpLeg  -3.17809 0.675356 3.22707
LeftLeg  -2.30826 9.77482 -0.679671
LeftFoot  1.56323 0.302918 -2.76098
LeftToes  4.7633e-008 1.48299e-008 1.30754e-009
